<?xml version="1.0" encoding="utf-8"?>
<!-- Generator: Adobe Illustrator 25.0.1, SVG Export Plug-In . SVG Version: 6.00 Build 0)  -->
<svg version="1.1" id="Layer_1" xmlns="http://www.w3.org/2000/svg" xmlns:xlink="http://www.w3.org/1999/xlink" x="0px" y="0px"
	 viewBox="0 0 2222 2500" style="enable-background:new 0 0 2222 2500;" xml:space="preserve">
<style type="text/css">
	.st0{fill:#A179DC;}
	.st1{fill:#280068;}
	.st2{fill:#390091;}
	.st3{fill:#FFFFFF;}
</style>
<path class="st0" d="M2105,791.1c0-37.5-8-70.6-24.2-99c-15.9-27.9-39.7-51.4-71.7-69.9c-263.9-152.2-528-303.9-791.8-456.2
	c-71.1-41.1-140.1-39.6-210.7,2.1c-105,61.9-630.9,363.2-787.6,454c-64.5,37.4-95.9,94.5-96,168.9c-0.1,306,0,612-0.1,918
	c0,36.6,7.7,69.1,23.2,97.1c15.9,28.8,40.1,52.8,72.8,71.8c156.7,90.8,682.7,392,787.7,454c70.6,41.7,139.6,43.2,210.7,2.1
	c263.8-152.3,528-304,791.9-456.2c32.7-18.9,56.9-43,72.8-71.8c15.5-28,23.2-60.4,23.2-97.1C2105.1,1708.9,2105.1,1097.1,2105,791.1
	"/>
<path class="st1" d="M1117.1,1247l-971,559.1c15.9,28.8,40.1,52.8,72.8,71.8c156.7,90.8,682.7,392,787.7,454
	c70.6,41.7,139.6,43.2,210.7,2.1c263.8-152.3,528-304,791.9-456.2c32.7-18.9,56.9-43,72.8-71.8L1117.1,1247z"/>
<path class="st2" d="M2105,791.1c0-37.5-8-70.6-24.2-99L1117.1,1247l964.9,559c15.5-28,23.2-60.4,23.2-97.1
	C2105.1,1708.9,2105.1,1097.1,2105,791.1"/>
<g>
	<path class="st3" d="M1688.7,1038v104.5h104.5V1038h52.3v104.5H1950v52.3h-104.5v104.5H1950v52.3h-104.5V1456h-52.3v-104.5h-104.5
		V1456h-52.3v-104.5H1532v-52.3h104.5v-104.5H1532v-52.3h104.5V1038L1688.7,1038z M1793.2,1194.8h-104.5v104.5h104.5V1194.8z"/>
	<path class="st3" d="M1119.2,513.2c272.6,0,510.5,148,638,368.1l-1.2-2.1l-320.7,184.6c-63.2-107-179-179.2-311.9-180.7l-4.2,0
		c-202.6,0-366.9,164.3-366.9,366.9c-0.1,63.9,16.6,126.6,48.4,182c63.2,110.4,182.1,184.9,318.5,184.9
		c137.2,0,256.8-75.4,319.7-187l-1.5,2.7l320.2,185.5c-126.1,218.2-360.8,365.7-630.2,368.7l-8.2,0
		c-273.4,0-512.1-148.9-639.2-370.1c-62.1-108-97.6-233.2-97.6-366.7C382.4,843.1,712.3,513.2,1119.2,513.2L1119.2,513.2z"/>
</g>
</svg>
