<?xml version="1.0" encoding="utf-8"?>
<!-- Generator: Adobe Illustrator 19.0.0, SVG Export Plug-In . SVG Version: 6.00 Build 0)  -->
<svg version="1.1"
	 id="svg3476" xmlns:inkscape="http://www.inkscape.org/namespaces/inkscape" xmlns:sodipodi="http://sodipodi.sourceforge.net/DTD/sodipodi-0.dtd" xmlns:cc="http://creativecommons.org/ns#" xmlns:rdf="http://www.w3.org/1999/02/22-rdf-syntax-ns#" xmlns:svg="http://www.w3.org/2000/svg" xmlns:dc="http://purl.org/dc/elements/1.1/" sodipodi:docname="CSS3.svg" inkscape:version="0.91 r13725"
	 xmlns="http://www.w3.org/2000/svg" xmlns:xlink="http://www.w3.org/1999/xlink" x="0px" y="0px" viewBox="-270.9 141.2 512 512"
	 style="enable-background:new -270.9 141.2 512 512;" xml:space="preserve">
<style type="text/css">
	.st0{fill:#264DE4;}
	.st1{fill:#2965F1;}
	.st2{fill:#EBEBEB;}
	.st3{fill:#FFFFFF;}
</style>
<sodipodi:namedview  pagecolor="#ffffff" id="base" bordercolor="#666666" borderopacity="1.0" inkscape:cx="181.367" inkscape:zoom="0.35" fit-margin-top="0" showgrid="false" inkscape:cy="256" fit-margin-left="0" inkscape:window-maximized="1" inkscape:window-y="27" inkscape:window-x="0" inkscape:window-height="704" inkscape:window-width="1366" inkscape:pageshadow="2" inkscape:pageopacity="0.0" inkscape:current-layer="layer1" fit-margin-bottom="0" fit-margin-right="0" inkscape:document-units="px">
	</sodipodi:namedview>
<g id="layer1" transform="translate(-193.633,-276.3622)" inkscape:label="Calque 1" inkscape:groupmode="layer">
	<g id="g3013" transform="translate(119,276.3622)">
		<polygon id="polygon2989" class="st0" points="241.5,241.8 208.4,612 59.9,653.2 -88.3,612.1 -121.3,241.8 		"/>
		<polygon id="polygon2991" class="st1" points="180.1,588.4 208.4,272.1 60.1,272.1 60.1,621.7 		"/>
		<polygon id="polygon2993" class="st2" points="-45.6,409.4 -41.5,454.8 60.1,454.8 60.1,409.4 		"/>
		<polygon id="polygon2995" class="st2" points="60.1,317.5 59.9,317.5 -53.8,317.5 -49.6,362.9 60.1,362.9 		"/>
		<polygon id="polygon2997" class="st2" points="60.1,574.6 60.1,527.4 59.9,527.4 9.3,513.8 6.1,477.5 -18.5,477.5 -39.5,477.5 
			-33.1,548.8 59.9,574.7 		"/>
		<path id="path2999" inkscape:connector-curvature="0" d="M-35.9,141.2h55v23h-32v23h32v23h-55V141.2z"/>
		<path id="path3001" inkscape:connector-curvature="0" d="M30.1,141.2h55v20h-32v4h32v46h-55v-21h32v-4h-32V141.2z"/>
		<path id="path3003" inkscape:connector-curvature="0" d="M96.1,141.2h55v20h-32v4h32v46h-55v-21h32v-4h-32V141.2z"/>
		<polygon id="polygon3005" class="st3" points="115.9,454.8 110.6,513.7 59.9,527.4 59.9,574.6 153,548.8 153.7,541.2 164.4,421.6 
			165.5,409.4 173.7,317.5 59.9,317.5 59.9,362.9 123.9,362.9 119.8,409.4 59.9,409.4 59.9,454.8 		"/>
	</g>
</g>
</svg>
