<?xml version="1.0" encoding="utf-8"?>
<!-- Generator: Adobe Illustrator 19.0.0, SVG Export Plug-In . SVG Version: 6.00 Build 0)  -->
<svg version="1.1" id="Layer_1" xmlns="http://www.w3.org/2000/svg" xmlns:xlink="http://www.w3.org/1999/xlink" x="0px" y="0px"
	 viewBox="-464.5 140.5 512 512" style="enable-background:new -464.5 140.5 512 512;" xml:space="preserve">
<style type="text/css">
	.st0{fill:#F05133;}
</style>
<g>
	<path class="st0" d="M37.9,373.7l-223.5-223.5c-12.9-12.9-33.8-12.9-46.6,0l-46.4,46.4l58.9,58.9c13.7-4.6,29.4-1.5,40.3,9.4
		c11,11,14,26.8,9.3,40.5l56.8,56.8c13.7-4.7,29.6-1.7,40.5,9.3c15.3,15.3,15.3,40.2,0,55.5c-15.3,15.3-40.2,15.3-55.5,0
		c-11.5-11.5-14.4-28.5-8.5-42.7l-52.9-52.9v139.3c3.7,1.8,7.3,4.3,10.4,7.4c15.3,15.3,15.3,40.2,0,55.5
		c-15.3,15.3-40.2,15.3-55.5,0c-15.3-15.3-15.3-40.2,0-55.5c3.8-3.8,8.2-6.6,12.9-8.6V328.9c-4.7-1.9-9.1-4.8-12.9-8.6
		c-11.6-11.6-14.4-28.6-8.4-42.9l-58-58.1l-153.3,153.3c-12.9,12.9-12.9,33.8,0,46.6l223.6,223.5c12.9,12.9,33.7,12.9,46.6,0
		L37.9,420.3C50.7,407.5,50.7,386.6,37.9,373.7z"/>
</g>
</svg>
