<?xml version="1.0" encoding="utf-8"?>
<!-- Generator: Adobe Illustrator 19.0.0, SVG Export Plug-In . SVG Version: 6.00 Build 0)  -->
<svg version="1.1" id="Capa_1" xmlns="http://www.w3.org/2000/svg" xmlns:xlink="http://www.w3.org/1999/xlink" x="0px" y="0px"
	 viewBox="-49 141 512 512" style="enable-background:new -49 141 512 512;" xml:space="preserve">
<style type="text/css">
	.st0{fill:#E6A329;}
	.st1{fill:#F1BF22;}
	.st2{fill:#FFFFFF;}
	.st3{fill:#EBEBEB;}
</style>
<g id="Layer_1">
	<g id="code_x5F_html5">
	</g>
	<g>
		<polygon class="st0" points="390.4,241.2 208.9,241.2 208.9,241.2 26.9,241.2 60.8,611 208.9,653 208.9,653 208.9,653 208.9,653 
			208.9,653 356.5,611 		"/>
		<polygon class="st1" points="208.9,271.5 208.9,621.3 208.9,621.3 328.5,587.5 357.4,271.5 		"/>
		<polygon class="st2" points="304.1,316.6 119.9,316.6 107.3,455.3 107.3,454.3 263.5,454.3 258.5,513 208.9,527 158.3,512.5 
			155.1,477.3 109.1,477.3 115.9,547.8 208.9,574.4 301.9,547.8 314.5,409.1 148.8,409.1 150.6,362.6 265.8,362.6 267.6,389.3 
			314.1,389.3 		"/>
		<g>
			<path class="st3" d="M208.9,316.6H120l-12.6,138.6l0.5-0.9h101.6v-45.1h-54.2l2.3-46.5h51.5v-46.1H208.9z M155.1,477.3H109
				l6.8,70.9l93,26.2V527l-50.6-14.4L155.1,477.3z"/>
		</g>
		<g>
			<polygon points="173.2,186.6 141.1,186.6 141.1,210 173.2,210 190.8,210 196.7,210 196.7,140.9 173.2,140.9 			"/>
			<path d="M276.6,141.4h-56.4c0,0,0,12.2,0,24.4c7.7,7.7,11.3,11.3,22.6,22.1c-6.3,0-22.6,0-22.6,0v22.1h56.4v-22.1L254,165.8h22.6
				V141.4z"/>
		</g>
	</g>
</g>
<g id="Layer_2">
</g>
</svg>
