<svg width="23" height="31" viewBox="0 0 23 31" fill="none" xmlns="http://www.w3.org/2000/svg">
<path d="M5.038 19.03H10.978V22H1.32V5.973H5.038V19.03Z" fill="#D9C300"/>
<path d="M12.267 19.8015V26H8.38V9.2445H13.831C15.0423 9.2445 16.0735 9.371 16.9245 9.624C17.7832 9.86933 18.4808 10.2143 19.0175 10.659C19.5618 11.1037 19.9567 11.6288 20.202 12.2345C20.4473 12.8402 20.57 13.4995 20.57 14.2125C20.57 14.7568 20.4972 15.2705 20.3515 15.7535C20.2058 16.2365 19.9873 16.685 19.696 17.099C19.4123 17.5053 19.0597 17.8695 18.638 18.1915C18.224 18.5135 17.7448 18.778 17.2005 18.985C17.4612 19.1153 17.7027 19.2763 17.925 19.468C18.155 19.6597 18.3543 19.8935 18.523 20.1695L22.088 26H18.569C17.9173 26 17.4497 25.7547 17.166 25.264L14.383 20.3995C14.2603 20.1848 14.1147 20.0315 13.946 19.9395C13.785 19.8475 13.555 19.8015 13.256 19.8015H12.267ZM12.267 17.122H13.831C14.36 17.122 14.8085 17.0568 15.1765 16.9265C15.5522 16.7885 15.8588 16.6007 16.0965 16.363C16.3342 16.1253 16.5067 15.8493 16.614 15.535C16.7213 15.213 16.775 14.868 16.775 14.5C16.775 13.764 16.5335 13.189 16.0505 12.775C15.5752 12.361 14.8353 12.154 13.831 12.154H12.267V17.122Z" fill="#D9C300"/>
</svg>
