<svg width="145" height="145" viewBox="0 0 145 145" fill="none" xmlns="http://www.w3.org/2000/svg">
<path d="M9.0625 36.25C9.0625 31.443 10.9721 26.8328 14.3712 23.4337C17.7703 20.0346 22.3805 18.125 27.1875 18.125H99.6875C104.495 18.125 109.105 20.0346 112.504 23.4337C115.903 26.8328 117.812 31.443 117.812 36.25V38.0716L63.4375 67.3525L9.0625 38.0806V36.25ZM65.5853 76.4875L117.812 48.3666V90.625C117.812 95.432 115.903 100.042 112.504 103.441C109.105 106.84 104.495 108.75 99.6875 108.75H27.1875C22.3805 108.75 17.7703 106.84 14.3712 103.441C10.9721 100.042 9.0625 95.432 9.0625 90.625V48.3666L61.2897 76.4875C61.9498 76.8429 62.6878 77.0289 63.4375 77.0289C64.1872 77.0289 64.9252 76.8429 65.5853 76.4875V76.4875ZM45.3125 126.875C42.131 126.875 39.0055 126.037 36.2503 124.447C33.495 122.856 31.207 120.568 29.6162 117.812H99.6875C106.898 117.812 113.813 114.948 118.912 109.849C124.011 104.751 126.875 97.8356 126.875 90.625V38.6788C129.63 40.2695 131.918 42.5575 133.509 45.3128C135.1 48.068 135.937 51.1935 135.938 54.375V90.625C135.938 100.239 132.118 109.459 125.32 116.258C118.522 123.056 109.302 126.875 99.6875 126.875H45.3125Z" fill="black"/>
</svg>
