<svg width="125" height="125" viewBox="0 0 125 125" fill="none" xmlns="http://www.w3.org/2000/svg">
<g clip-path="url(#clip0)">
<path d="M31.2501 31.25C31.2501 27.106 32.8963 23.1317 35.8265 20.2015C38.7568 17.2712 42.7311 15.625 46.8751 15.625H78.1251C82.2691 15.625 86.2434 17.2712 89.1736 20.2015C92.1039 23.1317 93.7501 27.106 93.7501 31.25V93.75C93.7501 97.894 92.1039 101.868 89.1736 104.799C86.2434 107.729 82.2691 109.375 78.1251 109.375H46.8751C42.7311 109.375 38.7568 107.729 35.8265 104.799C32.8963 101.868 31.2501 97.894 31.2501 93.75V31.25ZM70.3126 85.9375C70.3126 83.8655 69.4895 81.8784 68.0243 80.4132C66.5592 78.9481 64.5721 78.125 62.5001 78.125C60.4281 78.125 58.4409 78.9481 56.9758 80.4132C55.5107 81.8784 54.6876 83.8655 54.6876 85.9375C54.6876 88.0095 55.5107 89.9966 56.9758 91.4618C58.4409 92.9269 60.4281 93.75 62.5001 93.75C64.5721 93.75 66.5592 92.9269 68.0243 91.4618C69.4895 89.9966 70.3126 88.0095 70.3126 85.9375ZM14.1173 36.9844C14.6021 36.0686 14.7033 34.9976 14.3985 34.0072C14.0938 33.0168 13.4081 32.188 12.4923 31.7031C11.5764 31.2183 10.5055 31.1171 9.51508 31.4218C8.52465 31.7266 7.69585 32.4123 7.211 33.3281C2.46089 42.3172 -0.0149049 52.333 6.75066e-05 62.5C6.75066e-05 73.0234 2.60944 82.9531 7.211 91.6719C7.45108 92.1253 7.77812 92.5271 8.17345 92.8542C8.56878 93.1813 9.02467 93.4273 9.51508 93.5782C10.0055 93.7291 10.5208 93.7819 11.0316 93.7336C11.5425 93.6854 12.0388 93.537 12.4923 93.2969C12.9457 93.0568 13.3475 92.7298 13.6746 92.3344C14.0016 91.9391 14.2476 91.4832 14.3985 90.9928C14.5494 90.5024 14.6023 89.9871 14.554 89.4762C14.5057 88.9654 14.3573 88.4691 14.1173 88.0156C9.96292 80.1531 7.79825 71.3925 7.81257 62.5C7.81257 53.2813 10.0938 44.5938 14.1173 36.9844ZM117.789 33.3281C117.304 32.4123 116.475 31.7266 115.485 31.4218C114.495 31.1171 113.424 31.2183 112.508 31.7031C111.592 32.188 110.906 33.0168 110.602 34.0072C110.297 34.9976 110.398 36.0686 110.883 36.9844C114.906 44.5938 117.188 53.2734 117.188 62.5C117.188 71.7187 114.906 80.4062 110.883 88.0156C110.398 88.9314 110.297 90.0024 110.602 90.9928C110.906 91.9832 111.592 92.812 112.508 93.2969C113.424 93.7817 114.495 93.8829 115.485 93.5782C116.475 93.2734 117.304 92.5877 117.789 91.6719C122.539 82.6828 125.015 72.667 125 62.5C125.015 52.333 122.539 42.3172 117.789 33.3281V33.3281ZM26.0938 48.2969C26.3118 47.8141 26.4293 47.2919 26.4392 46.7623C26.4491 46.2326 26.3512 45.7064 26.1513 45.2158C25.9515 44.7252 25.6539 44.2804 25.2768 43.9083C24.8996 43.5363 24.4507 43.2449 23.9574 43.0518C23.4641 42.8587 22.9366 42.768 22.4071 42.7852C21.8777 42.8023 21.3572 42.927 20.8774 43.1516C20.3976 43.3762 19.9685 43.6961 19.6163 44.0918C19.264 44.4874 18.9959 44.9506 18.8282 45.4531C16.7068 50.886 15.6204 56.6677 15.6251 62.5C15.6251 68.5078 16.7579 74.2578 18.8282 79.5469C18.9959 80.0494 19.264 80.5126 19.6163 80.9082C19.9685 81.3039 20.3976 81.6238 20.8774 81.8484C21.3572 82.073 21.8777 82.1977 22.4071 82.2148C22.9366 82.232 23.4641 82.1413 23.9574 81.9482C24.4507 81.7551 24.8996 81.4637 25.2768 81.0917C25.6539 80.7196 25.9515 80.2748 26.1513 79.7842C26.3512 79.2936 26.4491 78.7674 26.4392 78.2377C26.4293 77.7081 26.3118 77.1859 26.0938 76.7031C24.3304 72.1758 23.4295 67.3586 23.4376 62.5C23.4376 57.4844 24.3751 52.6953 26.0938 48.2969ZM106.172 45.4531C105.76 44.5404 105.013 43.8208 104.085 43.443C103.158 43.0652 102.121 43.0581 101.188 43.4231C100.255 43.7881 99.4987 44.4974 99.074 45.4044C98.6494 46.3114 98.5894 47.3469 98.9063 48.2969C100.625 52.6953 101.563 57.4844 101.563 62.5C101.563 67.5156 100.625 72.3047 98.9063 76.7031C98.5894 77.6531 98.6494 78.6886 99.074 79.5956C99.4987 80.5026 100.255 81.2119 101.188 81.5769C102.121 81.9419 103.158 81.9348 104.085 81.557C105.013 81.1792 105.76 80.4596 106.172 79.5469C108.25 74.2578 109.375 68.5078 109.375 62.5C109.375 56.4922 108.242 50.7422 106.172 45.4531V45.4531Z" fill="black"/>
</g>
<defs>
<clipPath id="clip0">
<rect width="125" height="125" fill="white"/>
</clipPath>
</defs>
</svg>
